<svg xmlns="http://www.w3.org/2000/svg" width="81" height="24" fill="none"><path fill="#1D1D1B" d="M68.997 23.45H11.844C5.42 23.45.208 18.228.208 11.79S5.42.113 11.844.113h57.153c6.424 0 11.635 5.222 11.635 11.677 0 6.438-5.211 11.66-11.635 11.66"/><path fill="url(#a)" d="M65.766 16.892a5.097 5.097 0 0 0 5.092-5.102 5.097 5.097 0 0 0-5.092-5.102 5.097 5.097 0 0 0-5.091 5.102 5.097 5.097 0 0 0 5.091 5.102"/><path fill="url(#b)" d="M65.766 14.7a2.91 2.91 0 0 0 2.905-2.91c0-1.608-1.3-2.911-2.905-2.911a2.91 2.91 0 0 0-2.904 2.91c0 1.608 1.3 2.911 2.904 2.911"/><path fill="url(#c)" d="M68.313 11.79a2.555 2.555 0 0 1-2.546 2.55 2.555 2.555 0 0 1-2.545-2.55 2.544 2.544 0 0 1 2.545-2.551 2.533 2.533 0 0 1 2.546 2.55z"/><path fill="url(#d)" d="M68.313 11.79a2.555 2.555 0 0 1-2.546 2.55 2.555 2.555 0 0 1-2.545-2.55 2.544 2.544 0 0 1 2.545-2.551 2.533 2.533 0 0 1 2.546 2.55z" style="mix-blend-mode:multiply"/><path fill="url(#e)" d="M68.074 13.126a.913.913 0 0 0-.906-.908.913.913 0 0 0-.905.908c0 .496.41.907.905.907s.906-.41.906-.907" style="mix-blend-mode:screen"/><defs><linearGradient id="a" x1="65.766" x2="65.766" y1="16.567" y2="6.533" gradientUnits="userSpaceOnUse"><stop stop-color="#666"/><stop offset="1" stop-color="#010104"/></linearGradient><linearGradient id="b" x1="65.784" x2="65.784" y1="9.05" y2="14.786" gradientUnits="userSpaceOnUse"><stop stop-color="#0B131C"/><stop offset="1" stop-color="#354039"/></linearGradient><linearGradient id="c" x1="67.561" x2="63.966" y1="13.587" y2="9.999" gradientUnits="userSpaceOnUse"><stop stop-color="#231F20"/><stop offset=".08" stop-color="#212226"/><stop offset=".2" stop-color="#1F2C37"/><stop offset=".33" stop-color="#1A3C53"/><stop offset=".47" stop-color="#13537B"/><stop offset=".62" stop-color="#0A70AE"/><stop offset=".78" stop-color="#0095EE"/><stop offset=".8" stop-color="#0387D6"/><stop offset=".84" stop-color="#0D689F"/><stop offset=".88" stop-color="#154D71"/><stop offset=".91" stop-color="#1B394E"/><stop offset=".95" stop-color="#1F2A34"/><stop offset=".98" stop-color="#222225"/><stop offset="1" stop-color="#231F20"/></linearGradient><radialGradient id="d" cx="0" cy="0" r="1" gradientTransform="matrix(2.54581 0 0 2.5511 65.767 11.79)" gradientUnits="userSpaceOnUse"><stop stop-color="#231F20"/><stop offset=".2" stop-color="#165068"/><stop offset=".38" stop-color="#0C78A1"/><stop offset=".54" stop-color="#0594CB"/><stop offset=".66" stop-color="#01A6E4"/><stop offset=".73" stop-color="#00ADEE"/><stop offset=".76" stop-color="#01A5E3"/><stop offset=".81" stop-color="#0693C8"/><stop offset=".87" stop-color="#0D749B"/><stop offset=".94" stop-color="#184A5E"/><stop offset="1" stop-color="#231F20"/></radialGradient><radialGradient id="e" cx="0" cy="0" r="1" gradientTransform="matrix(.90556 0 0 .90744 67.168 13.126)" gradientUnits="userSpaceOnUse"><stop stop-color="#CCC"/><stop offset=".02" stop-color="#C4C4C4"/><stop offset=".22" stop-color="#898989"/><stop offset=".41" stop-color="#585858"/><stop offset=".59" stop-color="#313131"/><stop offset=".75" stop-color="#161616"/><stop offset=".89" stop-color="#050505"/><stop offset="1"/></radialGradient></defs></svg>