<svg xmlns="http://www.w3.org/2000/svg" width="364" height="735" fill="none"><path fill="#5E465D" d="M303.499 0H60.433C28.756 0 3.076 25.714 3.076 57.433v620.134c0 31.719 25.68 57.433 57.357 57.433H303.5c31.677 0 57.357-25.714 57.357-57.433V57.433C360.857 25.713 335.177 0 303.5 0z"/><path fill="#706F6F" d="M303.054 1.71H60.877C29.9 1.71 4.784 26.86 4.784 57.879v619.227c0 31.018 25.116 56.167 56.093 56.167h242.177c30.977 0 56.093-25.149 56.093-56.167V57.878c0-31.018-25.116-56.167-56.093-56.167zm54.385 674.95c0 30.333-24.553 54.918-54.846 54.918H61.338c-30.293 0-54.846-24.585-54.846-54.918V58.34c0-30.333 24.553-54.918 54.846-54.918H302.61c30.293 0 54.846 24.585 54.846 54.918v618.337z"/><path fill="#1D1D1B" d="M302.062 5.611H61.885c-29.13 0-52.745 23.646-52.745 52.815v618.148c0 29.169 23.615 52.814 52.745 52.814h240.177c29.13 0 52.745-23.645 52.745-52.814V58.425c0-29.168-23.615-52.814-52.745-52.814"/><path fill="url(#a)" d="M362.959 187.783h-2.102v88.588h2.102z"/><path fill="url(#b)" d="M362.959 276.388v-88.571l1.043 1.147c-.53 9.426-.496 76.851 0 86.261l-1.043 1.146z"/><path fill="url(#c)" d="M1.794 169.152H.598v56.116h1.196z"/><path fill="url(#d)" d="M.598 225.268v-56.099l-.598.736c.308 5.971.273 48.691 0 54.645l.598.735z"/><path fill="url(#e)" d="M3.076 169.152H1.795v56.116h1.281z"/><path fill="url(#f)" d="M1.794 239.742H.598v56.116h1.196z"/><path fill="url(#g)" d="M.598 295.858v-56.099l-.598.736c.308 5.971.273 48.691 0 54.644l.598.736z"/><path fill="url(#h)" d="M3.076 239.759H1.795v56.116h1.281z"/><path fill="url(#i)" d="M1.794 116.133H.598v28.811h1.196z"/><path fill="url(#j)" d="M.598 144.926v-28.793l-.598.684c.308 5.646.273 21.779 0 27.408l.598.684z"/><path fill="url(#k)" d="M3.076 116.133H1.795v28.811h1.281z"/><defs><linearGradient id="a" x1="361.899" x2="361.899" y1="187.783" y2="276.371" gradientUnits="userSpaceOnUse"><stop stop-color="#68595F"/><stop offset=".02" stop-color="#896E80"/><stop offset=".04" stop-color="#5E3B5B"/><stop offset=".08" stop-color="#2B1D2A"/><stop offset=".11" stop-color="#704A6A"/><stop offset=".9" stop-color="#615060"/><stop offset=".94" stop-color="#2B1D2A"/><stop offset=".96" stop-color="#5E3B5B"/><stop offset=".98" stop-color="#845675"/><stop offset="1" stop-color="#5B4A5C"/></linearGradient><linearGradient id="b" x1="363.472" x2="363.472" y1="187.8" y2="276.371" gradientUnits="userSpaceOnUse"><stop stop-color="#676067"/><stop offset=".06" stop-color="#654E63"/><stop offset=".19" stop-color="#786F77"/><stop offset=".81" stop-color="#786F77"/><stop offset=".92" stop-color="#654E63"/><stop offset="1" stop-color="#676067"/></linearGradient><linearGradient id="c" x1="1.196" x2="1.196" y1="169.135" y2="225.251" gradientUnits="userSpaceOnUse"><stop stop-color="#68595F"/><stop offset=".02" stop-color="#896E80"/><stop offset=".04" stop-color="#5E3B5B"/><stop offset=".08" stop-color="#2D1E2C"/><stop offset=".11" stop-color="#704A6A"/><stop offset=".9" stop-color="#615060"/><stop offset=".94" stop-color="#2D1E2C"/><stop offset=".96" stop-color="#5E3B5B"/><stop offset=".98" stop-color="#845675"/><stop offset="1" stop-color="#5B4A5C"/></linearGradient><linearGradient id="d" x1=".308" x2=".308" y1="169.152" y2="225.251" gradientUnits="userSpaceOnUse"><stop stop-color="#676067"/><stop offset=".06" stop-color="#654E63"/><stop offset=".19" stop-color="#786F77"/><stop offset=".81" stop-color="#786F77"/><stop offset=".92" stop-color="#654E63"/><stop offset="1" stop-color="#676067"/></linearGradient><linearGradient id="e" x1="2.427" x2="2.427" y1="225.285" y2="169.152" gradientUnits="userSpaceOnUse"><stop stop-color="#68595F"/><stop offset=".05" stop-color="#2D1E2C"/><stop offset=".52" stop-color="#5E3B5B"/><stop offset=".96" stop-color="#2D1E2C"/><stop offset="1" stop-color="#5B4A5C"/></linearGradient><linearGradient id="f" x1="-2179.1" x2="-2179.1" y1="239.742" y2="295.858" gradientUnits="userSpaceOnUse"><stop stop-color="#68595F"/><stop offset=".02" stop-color="#896E80"/><stop offset=".04" stop-color="#5E3B5B"/><stop offset=".08" stop-color="#2D1E2C"/><stop offset=".11" stop-color="#704A6A"/><stop offset=".9" stop-color="#615060"/><stop offset=".94" stop-color="#2D1E2C"/><stop offset=".96" stop-color="#5E3B5B"/><stop offset=".98" stop-color="#845675"/><stop offset="1" stop-color="#5B4A5C"/></linearGradient><linearGradient id="g" x1=".308" x2=".308" y1="239.759" y2="295.858" gradientUnits="userSpaceOnUse"><stop stop-color="#676067"/><stop offset=".06" stop-color="#654E63"/><stop offset=".19" stop-color="#786F77"/><stop offset=".81" stop-color="#786F77"/><stop offset=".92" stop-color="#654E63"/><stop offset="1" stop-color="#676067"/></linearGradient><linearGradient id="h" x1=".001" x2="1.714" y1="295.875" y2="239.76" gradientUnits="userSpaceOnUse"><stop stop-color="#68595F"/><stop offset=".05" stop-color="#2D1E2C"/><stop offset=".52" stop-color="#5E3B5B"/><stop offset=".96" stop-color="#2D1E2C"/><stop offset="1" stop-color="#5B4A5C"/></linearGradient><linearGradient id="i" x1="-2179.1" x2="-2179.1" y1="116.116" y2="144.926" gradientUnits="userSpaceOnUse"><stop stop-color="#68595F"/><stop offset=".02" stop-color="#896E80"/><stop offset=".04" stop-color="#5E3B5B"/><stop offset=".08" stop-color="#2D1E2C"/><stop offset=".11" stop-color="#704A6A"/><stop offset=".9" stop-color="#615060"/><stop offset=".94" stop-color="#2D1E2C"/><stop offset=".96" stop-color="#5E3B5B"/><stop offset=".98" stop-color="#845675"/><stop offset="1" stop-color="#5B4A5C"/></linearGradient><linearGradient id="j" x1=".308" x2=".308" y1="116.133" y2="144.926" gradientUnits="userSpaceOnUse"><stop stop-color="#676067"/><stop offset=".06" stop-color="#654E63"/><stop offset=".19" stop-color="#786F77"/><stop offset=".81" stop-color="#786F77"/><stop offset=".92" stop-color="#654E63"/><stop offset="1" stop-color="#676067"/></linearGradient><linearGradient id="k" x1=".001" x2="2.433" y1="144.944" y2="116.133" gradientUnits="userSpaceOnUse"><stop stop-color="#68595F"/><stop offset=".05" stop-color="#2D1E2C"/><stop offset=".52" stop-color="#5E3B5B"/><stop offset=".96" stop-color="#2D1E2C"/><stop offset="1" stop-color="#5B4A5C"/></linearGradient></defs></svg>