<svg xmlns="http://www.w3.org/2000/svg" width="32" height="33" fill="none"><g clip-path="url(#a)"><path fill="#32BBFF" d="M23.898 11.477C20.181 9.397 14.214 6.059 4.96.877A2.23 2.23 0 0 0 2.998.621l15.878 15.878z"/><path fill="#32BBFF" d="M2.998.62a2.23 2.23 0 0 0-1.526 2.13v27.497a2.23 2.23 0 0 0 1.525 2.13L18.876 16.5z"/><path fill="#32BBFF" d="M18.876 16.499 2.997 32.377c.62.212 1.339.162 1.963-.256A13327 13327 0 0 1 23.594 21.7l.309-.173-5.027-5.027z"/><path fill="#2C9FD9" d="M1.472 16.499v13.749a2.23 2.23 0 0 0 1.525 2.13l15.879-15.879z"/><path fill="#29CC5E" d="M4.96.877a2.24 2.24 0 0 0-2.3-.112L18.635 16.74l5.263-5.263C20.181 9.396 14.214 6.058 4.96.877"/><path fill="#D93F21" d="M18.635 16.258 2.66 32.233a2.22 2.22 0 0 0 2.3-.112 13404 13404 0 0 1 18.634-10.422l.309-.173z"/><path fill="#FFD500" d="M30.528 16.499c0-.762-.384-1.53-1.146-1.957 0 0-1.425-.795-5.793-3.238l-5.195 5.195 5.2 5.2c4.32-2.425 5.788-3.243 5.788-3.243a2.23 2.23 0 0 0 1.146-1.957"/><path fill="#FA0" d="M29.382 18.456a2.23 2.23 0 0 0 1.146-1.957H18.394l5.2 5.2c4.32-2.425 5.788-3.243 5.788-3.243"/></g><defs><clipPath id="a"><path fill="#fff" d="M0 .5h32v32H0z"/></clipPath></defs></svg>