<svg xmlns="http://www.w3.org/2000/svg" width="20" height="20" fill="none"><path fill="#333" d="M14.063 18.125a.937.937 0 0 1-.938.938h-6.25a.937.937 0 1 1 0-1.875h6.25a.937.937 0 0 1 .938.937m3.124-10a7.23 7.23 0 0 1-2.89 5.76.61.61 0 0 0-.235.49 1.563 1.563 0 0 1-1.562 1.563h-5a1.563 1.563 0 0 1-1.562-1.563v-.018a.6.6 0 0 0-.254-.484A7.14 7.14 0 0 1 2.813 8.17C2.79 4.273 5.938 1.03 9.827.938a7.187 7.187 0 0 1 7.36 7.187m-1.875 0a5.313 5.313 0 0 0-5.44-5.312c-2.875.07-5.2 2.465-5.184 5.343a5.28 5.28 0 0 0 2.123 4.218 2.5 2.5 0 0 1 .984 1.689h1.268V11.64L6.837 9.413a.939.939 0 1 1 1.328-1.328L10 9.922l1.837-1.837a.94.94 0 0 1 1.328 1.328l-2.227 2.228v2.422h1.269a2.5 2.5 0 0 1 .97-1.68 5.27 5.27 0 0 0 2.136-4.258z"/></svg>